<?xml version="1.0" encoding="utf-8"?>
<!-- Generator: Adobe Illustrator 16.0.4, SVG Export Plug-In . SVG Version: 6.00 Build 0)  -->
<!DOCTYPE svg PUBLIC "-//W3C//DTD SVG 1.1//EN" "http://www.w3.org/Graphics/SVG/1.1/DTD/svg11.dtd">
<svg version="1.1" id="Laag_1" xmlns="http://www.w3.org/2000/svg" xmlns:xlink="http://www.w3.org/1999/xlink" x="0px" y="0px"
	 width="6.459px" height="9.916px" viewBox="0 0 6.459 9.916" enable-background="new 0 0 6.459 9.916" xml:space="preserve">
<path fill="none" stroke="#A63B3C" stroke-width="2" stroke-linecap="round" stroke-miterlimit="10" d="M35.696,5.309
	c0,0,1.546-3.111,5.66-3.111c4.115,0,6.706,3.631,6.706,6.705c0,3.073-1.903,4.898-3.133,5.668c-1.228,0.771-1.39,0.964-1.39,3.705
	c0,2.742-2.552,4.444-4.309,4.444c-2.336,0-3.84-1.69-3.84-2.987"/>
<path fill="none" stroke="#A63B3C" stroke-width="2" stroke-linecap="round" stroke-miterlimit="10" d="M44.858,9.22
	c0,0-0.697-3.157-3.399-3.157c-2.367,0-3.672,1.669-3.672,3.429v2.975c0,0,1.912,0.013,1.912,1.743c0,1.818-2.312,1.818-2.312,1.818
	"/>
<g>
	<path fill="#A63B3C" d="M2.131,9.916C0.875,9.916,0,8.99,0,8.16c0-0.243,0.197-0.44,0.44-0.44c0.243,0,0.44,0.197,0.44,0.44
		c0,0.297,0.441,0.875,1.25,0.875c0.494,0,1.456-0.536,1.456-1.517c0-1.227,0.071-1.534,0.818-2.004
		c0.275-0.173,1.173-0.835,1.173-2.123c0-1.188-1.031-2.511-2.512-2.511c-1.521,0-2.092,1.114-2.097,1.125
		C0.86,2.224,0.596,2.312,0.378,2.204C0.161,2.096,0.072,1.832,0.18,1.614C0.213,1.548,1.006,0,3.066,0
		c2.03,0,3.393,1.754,3.393,3.392c0,1.739-1.214,2.635-1.585,2.868C4.468,6.516,4.468,6.516,4.468,7.519
		C4.468,9.003,3.106,9.916,2.131,9.916z"/>
</g>
<g>
	<path fill="#A63B3C" d="M1.319,6.969c-0.243,0-0.44-0.197-0.44-0.44s0.197-0.44,0.44-0.44c0.057-0.001,0.578-0.017,0.578-0.36
		c0-0.275-0.256-0.323-0.409-0.327L1.06,5.389L1.055,3.651c0-0.945,0.721-1.95,2.057-1.95c1.221,0,1.794,1.135,1.926,1.735
		C5.09,3.674,4.94,3.909,4.703,3.961C4.467,4.014,4.231,3.865,4.178,3.628c-0.01-0.045-0.251-1.046-1.067-1.046
		c-0.808,0-1.176,0.554-1.176,1.069v0.942C2.36,4.732,2.777,5.079,2.777,5.729C2.777,6.639,1.905,6.969,1.319,6.969z"/>
</g>
</svg>
