<?xml version="1.0" encoding="utf-8"?>
<!-- Generator: Adobe Illustrator 16.0.4, SVG Export Plug-In . SVG Version: 6.00 Build 0)  -->
<!DOCTYPE svg PUBLIC "-//W3C//DTD SVG 1.1//EN" "http://www.w3.org/Graphics/SVG/1.1/DTD/svg11.dtd">
<svg version="1.1" id="Laag_1" xmlns="http://www.w3.org/2000/svg" xmlns:xlink="http://www.w3.org/1999/xlink" x="0px" y="0px"
	 width="30px" height="30px" viewBox="0 0 30 30" enable-background="new 0 0 30 30" xml:space="preserve">
<g>
	<path fill="#FFFFFF" d="M22.829,26.432c-0.522,0-0.945-0.423-0.945-0.946V9.337c0-3.002-2.442-5.444-5.444-5.444h-3.003
		c-3.002,0-5.444,2.442-5.444,5.444v16.091c0,0.522-0.424,0.946-0.946,0.946S6.1,25.951,6.1,25.428V9.337
		c0-4.045,3.292-7.336,7.337-7.336h3.003c4.045,0,7.336,3.291,7.336,7.336v16.149C23.775,26.008,23.352,26.432,22.829,26.432z"/>
</g>
<path fill="#FFFFFF" d="M-0.002,18.8c0,3.429,2.778,6.208,6.207,6.208V12.593C2.776,12.593-0.002,15.372-0.002,18.8z"/>
<path fill="#FFFFFF" d="M29.878,18.8c0-3.428-2.779-6.207-6.207-6.207v12.414C27.099,25.007,29.878,22.228,29.878,18.8z"/>
</svg>
