<?xml version="1.0" encoding="utf-8"?>
<!-- Generator: Adobe Illustrator 16.0.4, SVG Export Plug-In . SVG Version: 6.00 Build 0)  -->
<!DOCTYPE svg PUBLIC "-//W3C//DTD SVG 1.1//EN" "http://www.w3.org/Graphics/SVG/1.1/DTD/svg11.dtd">
<svg version="1.1" id="Laag_1" xmlns="http://www.w3.org/2000/svg" xmlns:xlink="http://www.w3.org/1999/xlink" x="0px" y="0px"
	 width="30px" height="30px" viewBox="0 0 30 30" enable-background="new 0 0 30 30" xml:space="preserve">
<path fill="none" stroke="#FFFFFF" stroke-linecap="round" stroke-miterlimit="10" d="M8.133,6.722c0,0,1.546-3.111,5.66-3.111
	c4.115,0,6.706,3.631,6.706,6.705c0,3.073-1.904,4.898-3.133,5.669c-1.228,0.771-1.39,0.963-1.39,3.705
	c0,2.741-2.551,4.444-4.308,4.444c-2.336,0-3.84-1.691-3.84-2.988"/>
<path fill="none" stroke="#FFFFFF" stroke-linecap="round" stroke-miterlimit="10" d="M17.295,10.633c0,0-0.698-3.157-3.399-3.157
	c-2.367,0-3.673,1.669-3.673,3.429v2.975c0,0,1.913,0.013,1.913,1.743c0,1.818-2.312,1.818-2.312,1.818"/>
</svg>
