<?xml version="1.0" encoding="utf-8"?>
<!-- Generator: Adobe Illustrator 16.0.4, SVG Export Plug-In . SVG Version: 6.00 Build 0)  -->
<!DOCTYPE svg PUBLIC "-//W3C//DTD SVG 1.1//EN" "http://www.w3.org/Graphics/SVG/1.1/DTD/svg11.dtd">
<svg version="1.1" id="Laag_1" xmlns="http://www.w3.org/2000/svg" xmlns:xlink="http://www.w3.org/1999/xlink" x="0px" y="0px"
	 width="60px" height="60px" viewBox="-10 -10 60 60" enable-background="new -10 -10 60 60" xml:space="preserve">
<circle fill="#4C4C4C" cx="20.001" cy="19.999" r="29.999"/>
<g>
	<path fill="#FFFFFF" d="M28.295,11.267c-0.214,0.344-0.442,0.604-0.677,0.775c-0.239,0.172-0.544,0.259-0.916,0.259
		c-0.333,0-0.688-0.105-1.069-0.315c-0.379-0.204-0.811-0.442-1.291-0.698c-0.48-0.259-1.031-0.494-1.648-0.698
		c-0.617-0.21-1.322-0.315-2.111-0.315c-1.367,0-2.381,0.291-3.051,0.873c-0.667,0.582-1,1.368-1,2.36
		c0,0.631,0.2,1.157,0.604,1.571c0.399,0.417,0.93,0.778,1.582,1.08c0.655,0.302,1.402,0.575,2.241,0.828
		c0.842,0.252,1.697,0.533,2.574,0.842c0.876,0.309,1.735,0.669,2.577,1.087c0.839,0.417,1.586,0.947,2.241,1.592
		c0.652,0.649,1.179,1.435,1.582,2.364c0.403,0.926,0.604,2.041,0.604,3.35c0,1.448-0.253,2.809-0.755,4.071
		c-0.501,1.263-1.23,2.367-2.185,3.308c-0.957,0.943-2.136,1.68-3.535,2.22s-2.991,0.807-4.773,0.807
		c-0.979,0-1.971-0.098-2.984-0.302c-1.014-0.199-1.992-0.483-2.943-0.849c-0.947-0.368-1.837-0.8-2.669-1.305
		c-0.834-0.505-1.561-1.062-2.178-1.684l2.153-3.401c0.158-0.26,0.382-0.467,0.67-0.624c0.288-0.162,0.596-0.239,0.926-0.239
		c0.432,0,0.866,0.137,1.305,0.41c0.438,0.271,0.933,0.575,1.487,0.905c0.55,0.33,1.189,0.631,1.904,0.905
		c0.72,0.273,1.568,0.41,2.543,0.41c1.322,0,2.35-0.291,3.083-0.873c0.733-0.583,1.098-1.505,1.098-2.768
		c0-0.736-0.2-1.333-0.604-1.789c-0.399-0.463-0.929-0.841-1.581-1.143c-0.656-0.302-1.399-0.568-2.23-0.8
		c-0.835-0.229-1.688-0.484-2.564-0.765c-0.876-0.28-1.732-0.624-2.563-1.031c-0.834-0.414-1.578-0.95-2.23-1.62
		c-0.656-0.667-1.182-1.501-1.585-2.497s-0.603-2.23-0.603-3.696c0-1.178,0.238-2.329,0.712-3.448
		c0.474-1.119,1.171-2.118,2.09-2.995c0.919-0.873,2.044-1.575,3.381-2.101s2.869-0.786,4.591-0.786c0.961,0,1.9,0.077,2.812,0.225
		c0.912,0.154,1.778,0.375,2.595,0.67c0.821,0.294,1.586,0.645,2.298,1.056c0.708,0.407,1.347,0.873,1.904,1.389L28.295,11.267z"/>
</g>
</svg>
